G04 #@! TF.GenerationSoftware,KiCad,Pcbnew,5.1.5*
G04 #@! TF.CreationDate,2020-01-04T21:59:29+01:00*
G04 #@! TF.ProjectId,cs_ina199,63735f69-6e61-4313-9939-2e6b69636164,rev?*
G04 #@! TF.SameCoordinates,Original*
G04 #@! TF.FileFunction,Copper,L1,Top*
G04 #@! TF.FilePolarity,Positive*
%FSLAX46Y46*%
G04 Gerber Fmt 4.6, Leading zero omitted, Abs format (unit mm)*
G04 Created by KiCad (PCBNEW 5.1.5) date 2020-01-04 21:59:29*
%MOMM*%
%LPD*%
G04 APERTURE LIST*
%ADD10C,0.700000*%
%ADD11C,4.400000*%
%ADD12C,0.100000*%
%ADD13R,1.500000X0.400000*%
%ADD14C,3.000000*%
%ADD15R,3.000000X3.000000*%
%ADD16O,1.700000X1.700000*%
%ADD17R,1.700000X1.700000*%
%ADD18C,0.250000*%
%ADD19C,2.000000*%
%ADD20C,0.254000*%
G04 APERTURE END LIST*
D10*
X145946726Y-80113274D03*
X144780000Y-79630000D03*
X143613274Y-80113274D03*
X143130000Y-81280000D03*
X143613274Y-82446726D03*
X144780000Y-82930000D03*
X145946726Y-82446726D03*
X146430000Y-81280000D03*
D11*
X144780000Y-81280000D03*
D10*
X145946726Y-87733274D03*
X144780000Y-87250000D03*
X143613274Y-87733274D03*
X143130000Y-88900000D03*
X143613274Y-90066726D03*
X144780000Y-90550000D03*
X145946726Y-90066726D03*
X146430000Y-88900000D03*
D11*
X144780000Y-88900000D03*
G04 #@! TA.AperFunction,SMDPad,CuDef*
D12*
G36*
X149064505Y-86811204D02*
G01*
X149088773Y-86814804D01*
X149112572Y-86820765D01*
X149135671Y-86829030D01*
X149157850Y-86839520D01*
X149178893Y-86852132D01*
X149198599Y-86866747D01*
X149216777Y-86883223D01*
X149233253Y-86901401D01*
X149247868Y-86921107D01*
X149260480Y-86942150D01*
X149270970Y-86964329D01*
X149279235Y-86987428D01*
X149285196Y-87011227D01*
X149288796Y-87035495D01*
X149290000Y-87059999D01*
X149290000Y-87710001D01*
X149288796Y-87734505D01*
X149285196Y-87758773D01*
X149279235Y-87782572D01*
X149270970Y-87805671D01*
X149260480Y-87827850D01*
X149247868Y-87848893D01*
X149233253Y-87868599D01*
X149216777Y-87886777D01*
X149198599Y-87903253D01*
X149178893Y-87917868D01*
X149157850Y-87930480D01*
X149135671Y-87940970D01*
X149112572Y-87949235D01*
X149088773Y-87955196D01*
X149064505Y-87958796D01*
X149040001Y-87960000D01*
X148139999Y-87960000D01*
X148115495Y-87958796D01*
X148091227Y-87955196D01*
X148067428Y-87949235D01*
X148044329Y-87940970D01*
X148022150Y-87930480D01*
X148001107Y-87917868D01*
X147981401Y-87903253D01*
X147963223Y-87886777D01*
X147946747Y-87868599D01*
X147932132Y-87848893D01*
X147919520Y-87827850D01*
X147909030Y-87805671D01*
X147900765Y-87782572D01*
X147894804Y-87758773D01*
X147891204Y-87734505D01*
X147890000Y-87710001D01*
X147890000Y-87059999D01*
X147891204Y-87035495D01*
X147894804Y-87011227D01*
X147900765Y-86987428D01*
X147909030Y-86964329D01*
X147919520Y-86942150D01*
X147932132Y-86921107D01*
X147946747Y-86901401D01*
X147963223Y-86883223D01*
X147981401Y-86866747D01*
X148001107Y-86852132D01*
X148022150Y-86839520D01*
X148044329Y-86829030D01*
X148067428Y-86820765D01*
X148091227Y-86814804D01*
X148115495Y-86811204D01*
X148139999Y-86810000D01*
X149040001Y-86810000D01*
X149064505Y-86811204D01*
G37*
G04 #@! TD.AperFunction*
G04 #@! TA.AperFunction,SMDPad,CuDef*
G36*
X149064505Y-84761204D02*
G01*
X149088773Y-84764804D01*
X149112572Y-84770765D01*
X149135671Y-84779030D01*
X149157850Y-84789520D01*
X149178893Y-84802132D01*
X149198599Y-84816747D01*
X149216777Y-84833223D01*
X149233253Y-84851401D01*
X149247868Y-84871107D01*
X149260480Y-84892150D01*
X149270970Y-84914329D01*
X149279235Y-84937428D01*
X149285196Y-84961227D01*
X149288796Y-84985495D01*
X149290000Y-85009999D01*
X149290000Y-85660001D01*
X149288796Y-85684505D01*
X149285196Y-85708773D01*
X149279235Y-85732572D01*
X149270970Y-85755671D01*
X149260480Y-85777850D01*
X149247868Y-85798893D01*
X149233253Y-85818599D01*
X149216777Y-85836777D01*
X149198599Y-85853253D01*
X149178893Y-85867868D01*
X149157850Y-85880480D01*
X149135671Y-85890970D01*
X149112572Y-85899235D01*
X149088773Y-85905196D01*
X149064505Y-85908796D01*
X149040001Y-85910000D01*
X148139999Y-85910000D01*
X148115495Y-85908796D01*
X148091227Y-85905196D01*
X148067428Y-85899235D01*
X148044329Y-85890970D01*
X148022150Y-85880480D01*
X148001107Y-85867868D01*
X147981401Y-85853253D01*
X147963223Y-85836777D01*
X147946747Y-85818599D01*
X147932132Y-85798893D01*
X147919520Y-85777850D01*
X147909030Y-85755671D01*
X147900765Y-85732572D01*
X147894804Y-85708773D01*
X147891204Y-85684505D01*
X147890000Y-85660001D01*
X147890000Y-85009999D01*
X147891204Y-84985495D01*
X147894804Y-84961227D01*
X147900765Y-84937428D01*
X147909030Y-84914329D01*
X147919520Y-84892150D01*
X147932132Y-84871107D01*
X147946747Y-84851401D01*
X147963223Y-84833223D01*
X147981401Y-84816747D01*
X148001107Y-84802132D01*
X148022150Y-84789520D01*
X148044329Y-84779030D01*
X148067428Y-84770765D01*
X148091227Y-84764804D01*
X148115495Y-84761204D01*
X148139999Y-84760000D01*
X149040001Y-84760000D01*
X149064505Y-84761204D01*
G37*
G04 #@! TD.AperFunction*
D13*
X143450000Y-85740000D03*
X143450000Y-85090000D03*
X143450000Y-84440000D03*
X146110000Y-84440000D03*
X146110000Y-85090000D03*
X146110000Y-85740000D03*
G04 #@! TA.AperFunction,SMDPad,CuDef*
D12*
G36*
X141619504Y-85866204D02*
G01*
X141643773Y-85869804D01*
X141667571Y-85875765D01*
X141690671Y-85884030D01*
X141712849Y-85894520D01*
X141733893Y-85907133D01*
X141753598Y-85921747D01*
X141771777Y-85938223D01*
X141788253Y-85956402D01*
X141802867Y-85976107D01*
X141815480Y-85997151D01*
X141825970Y-86019329D01*
X141834235Y-86042429D01*
X141840196Y-86066227D01*
X141843796Y-86090496D01*
X141845000Y-86115000D01*
X141845000Y-87040000D01*
X141843796Y-87064504D01*
X141840196Y-87088773D01*
X141834235Y-87112571D01*
X141825970Y-87135671D01*
X141815480Y-87157849D01*
X141802867Y-87178893D01*
X141788253Y-87198598D01*
X141771777Y-87216777D01*
X141753598Y-87233253D01*
X141733893Y-87247867D01*
X141712849Y-87260480D01*
X141690671Y-87270970D01*
X141667571Y-87279235D01*
X141643773Y-87285196D01*
X141619504Y-87288796D01*
X141595000Y-87290000D01*
X140345000Y-87290000D01*
X140320496Y-87288796D01*
X140296227Y-87285196D01*
X140272429Y-87279235D01*
X140249329Y-87270970D01*
X140227151Y-87260480D01*
X140206107Y-87247867D01*
X140186402Y-87233253D01*
X140168223Y-87216777D01*
X140151747Y-87198598D01*
X140137133Y-87178893D01*
X140124520Y-87157849D01*
X140114030Y-87135671D01*
X140105765Y-87112571D01*
X140099804Y-87088773D01*
X140096204Y-87064504D01*
X140095000Y-87040000D01*
X140095000Y-86115000D01*
X140096204Y-86090496D01*
X140099804Y-86066227D01*
X140105765Y-86042429D01*
X140114030Y-86019329D01*
X140124520Y-85997151D01*
X140137133Y-85976107D01*
X140151747Y-85956402D01*
X140168223Y-85938223D01*
X140186402Y-85921747D01*
X140206107Y-85907133D01*
X140227151Y-85894520D01*
X140249329Y-85884030D01*
X140272429Y-85875765D01*
X140296227Y-85869804D01*
X140320496Y-85866204D01*
X140345000Y-85865000D01*
X141595000Y-85865000D01*
X141619504Y-85866204D01*
G37*
G04 #@! TD.AperFunction*
G04 #@! TA.AperFunction,SMDPad,CuDef*
G36*
X141619504Y-82891204D02*
G01*
X141643773Y-82894804D01*
X141667571Y-82900765D01*
X141690671Y-82909030D01*
X141712849Y-82919520D01*
X141733893Y-82932133D01*
X141753598Y-82946747D01*
X141771777Y-82963223D01*
X141788253Y-82981402D01*
X141802867Y-83001107D01*
X141815480Y-83022151D01*
X141825970Y-83044329D01*
X141834235Y-83067429D01*
X141840196Y-83091227D01*
X141843796Y-83115496D01*
X141845000Y-83140000D01*
X141845000Y-84065000D01*
X141843796Y-84089504D01*
X141840196Y-84113773D01*
X141834235Y-84137571D01*
X141825970Y-84160671D01*
X141815480Y-84182849D01*
X141802867Y-84203893D01*
X141788253Y-84223598D01*
X141771777Y-84241777D01*
X141753598Y-84258253D01*
X141733893Y-84272867D01*
X141712849Y-84285480D01*
X141690671Y-84295970D01*
X141667571Y-84304235D01*
X141643773Y-84310196D01*
X141619504Y-84313796D01*
X141595000Y-84315000D01*
X140345000Y-84315000D01*
X140320496Y-84313796D01*
X140296227Y-84310196D01*
X140272429Y-84304235D01*
X140249329Y-84295970D01*
X140227151Y-84285480D01*
X140206107Y-84272867D01*
X140186402Y-84258253D01*
X140168223Y-84241777D01*
X140151747Y-84223598D01*
X140137133Y-84203893D01*
X140124520Y-84182849D01*
X140114030Y-84160671D01*
X140105765Y-84137571D01*
X140099804Y-84113773D01*
X140096204Y-84089504D01*
X140095000Y-84065000D01*
X140095000Y-83140000D01*
X140096204Y-83115496D01*
X140099804Y-83091227D01*
X140105765Y-83067429D01*
X140114030Y-83044329D01*
X140124520Y-83022151D01*
X140137133Y-83001107D01*
X140151747Y-82981402D01*
X140168223Y-82963223D01*
X140186402Y-82946747D01*
X140206107Y-82932133D01*
X140227151Y-82919520D01*
X140249329Y-82909030D01*
X140272429Y-82900765D01*
X140296227Y-82894804D01*
X140320496Y-82891204D01*
X140345000Y-82890000D01*
X141595000Y-82890000D01*
X141619504Y-82891204D01*
G37*
G04 #@! TD.AperFunction*
D14*
X134620000Y-87630000D03*
D15*
X134620000Y-82550000D03*
D16*
X151765000Y-87630000D03*
X151765000Y-85090000D03*
D17*
X151765000Y-82550000D03*
D18*
X141187500Y-86360000D02*
X140970000Y-86577500D01*
X140970000Y-85865000D02*
X140970000Y-86577500D01*
X141745000Y-85090000D02*
X140970000Y-85865000D01*
X143450000Y-85090000D02*
X141745000Y-85090000D01*
D19*
X140970000Y-86577500D02*
X139482500Y-86577500D01*
X138430000Y-87630000D02*
X134620000Y-87630000D01*
X139482500Y-86577500D02*
X138430000Y-87630000D01*
D18*
X140970000Y-84315000D02*
X140970000Y-83602500D01*
X141095000Y-84440000D02*
X140970000Y-84315000D01*
X143450000Y-84440000D02*
X141095000Y-84440000D01*
D19*
X140970000Y-83602500D02*
X139482500Y-83602500D01*
X138430000Y-82550000D02*
X134620000Y-82550000D01*
X139482500Y-83602500D02*
X138430000Y-82550000D01*
D18*
X146110000Y-85090000D02*
X146110000Y-85740000D01*
X147305000Y-87385000D02*
X147890000Y-87385000D01*
X147890000Y-87385000D02*
X148590000Y-87385000D01*
X146110000Y-86190000D02*
X147305000Y-87385000D01*
X146110000Y-85740000D02*
X146110000Y-86190000D01*
X151520000Y-87385000D02*
X151765000Y-87630000D01*
X148590000Y-87385000D02*
X151520000Y-87385000D01*
X148835000Y-85090000D02*
X148590000Y-85335000D01*
X151765000Y-85090000D02*
X148835000Y-85090000D01*
X147110000Y-84440000D02*
X146110000Y-84440000D01*
X148270000Y-84440000D02*
X147110000Y-84440000D01*
X148590000Y-84760000D02*
X148270000Y-84440000D01*
X148590000Y-85335000D02*
X148590000Y-84760000D01*
X145034999Y-85155001D02*
X144450000Y-85740000D01*
X151765000Y-82550000D02*
X149004998Y-82550000D01*
X149004998Y-82550000D02*
X147749997Y-83805001D01*
X144450000Y-85740000D02*
X143450000Y-85740000D01*
X147749997Y-83805001D02*
X145209997Y-83805001D01*
X145209997Y-83805001D02*
X145034999Y-83979999D01*
X145034999Y-83979999D02*
X145034999Y-85155001D01*
D20*
G36*
X142790223Y-79469831D02*
G01*
X142402982Y-79709976D01*
X142142359Y-80203877D01*
X141983099Y-80739133D01*
X141931322Y-81295174D01*
X141989019Y-81850632D01*
X142153972Y-82384161D01*
X142221825Y-82511105D01*
X142088386Y-82401595D01*
X142075691Y-82394809D01*
X141882752Y-82236469D01*
X141598715Y-82084648D01*
X141290516Y-81991157D01*
X141050322Y-81967500D01*
X140159738Y-81967500D01*
X139642925Y-81450687D01*
X139591714Y-81388286D01*
X139342752Y-81183969D01*
X139058715Y-81032148D01*
X138750516Y-80938657D01*
X138510322Y-80915000D01*
X138510319Y-80915000D01*
X138430000Y-80907089D01*
X138349681Y-80915000D01*
X136742621Y-80915000D01*
X136709502Y-80805820D01*
X136650537Y-80695506D01*
X136571185Y-80598815D01*
X136474494Y-80519463D01*
X136364180Y-80460498D01*
X136244482Y-80424188D01*
X136120000Y-80411928D01*
X133120000Y-80411928D01*
X132995518Y-80424188D01*
X132875820Y-80460498D01*
X132765506Y-80519463D01*
X132668815Y-80598815D01*
X132589463Y-80695506D01*
X132530498Y-80805820D01*
X132494188Y-80925518D01*
X132481928Y-81050000D01*
X132481928Y-84050000D01*
X132494188Y-84174482D01*
X132530498Y-84294180D01*
X132589463Y-84404494D01*
X132668815Y-84501185D01*
X132765506Y-84580537D01*
X132875820Y-84639502D01*
X132995518Y-84675812D01*
X133120000Y-84688072D01*
X136120000Y-84688072D01*
X136244482Y-84675812D01*
X136364180Y-84639502D01*
X136474494Y-84580537D01*
X136571185Y-84501185D01*
X136650537Y-84404494D01*
X136709502Y-84294180D01*
X136742621Y-84185000D01*
X137752762Y-84185000D01*
X138269575Y-84701813D01*
X138320786Y-84764214D01*
X138569748Y-84968531D01*
X138797000Y-85090000D01*
X138569748Y-85211469D01*
X138320786Y-85415786D01*
X138269575Y-85478187D01*
X137752762Y-85995000D01*
X136004346Y-85995000D01*
X135980983Y-85971637D01*
X135631302Y-85737988D01*
X135242756Y-85577047D01*
X134830279Y-85495000D01*
X134409721Y-85495000D01*
X133997244Y-85577047D01*
X133608698Y-85737988D01*
X133259017Y-85971637D01*
X132961637Y-86269017D01*
X132727988Y-86618698D01*
X132567047Y-87007244D01*
X132485000Y-87419721D01*
X132485000Y-87840279D01*
X132567047Y-88252756D01*
X132727988Y-88641302D01*
X132961637Y-88990983D01*
X133259017Y-89288363D01*
X133608698Y-89522012D01*
X133997244Y-89682953D01*
X134409721Y-89765000D01*
X134830279Y-89765000D01*
X135242756Y-89682953D01*
X135631302Y-89522012D01*
X135980983Y-89288363D01*
X136004346Y-89265000D01*
X138349681Y-89265000D01*
X138430000Y-89272911D01*
X138510319Y-89265000D01*
X138510322Y-89265000D01*
X138750516Y-89241343D01*
X139058715Y-89147852D01*
X139342752Y-88996031D01*
X139591714Y-88791714D01*
X139642925Y-88729313D01*
X140159738Y-88212500D01*
X141050322Y-88212500D01*
X141290516Y-88188843D01*
X141598715Y-88095352D01*
X141882752Y-87943531D01*
X142075691Y-87785191D01*
X142088386Y-87778405D01*
X142222962Y-87667962D01*
X142227642Y-87662260D01*
X142142359Y-87823877D01*
X141983099Y-88359133D01*
X141931322Y-88915174D01*
X141989019Y-89470632D01*
X142153972Y-90004161D01*
X142402982Y-90470024D01*
X142790223Y-90710169D01*
X142720392Y-90780000D01*
X126390000Y-90780000D01*
X126390000Y-79400000D01*
X142720392Y-79400000D01*
X142790223Y-79469831D01*
G37*
X142790223Y-79469831D02*
X142402982Y-79709976D01*
X142142359Y-80203877D01*
X141983099Y-80739133D01*
X141931322Y-81295174D01*
X141989019Y-81850632D01*
X142153972Y-82384161D01*
X142221825Y-82511105D01*
X142088386Y-82401595D01*
X142075691Y-82394809D01*
X141882752Y-82236469D01*
X141598715Y-82084648D01*
X141290516Y-81991157D01*
X141050322Y-81967500D01*
X140159738Y-81967500D01*
X139642925Y-81450687D01*
X139591714Y-81388286D01*
X139342752Y-81183969D01*
X139058715Y-81032148D01*
X138750516Y-80938657D01*
X138510322Y-80915000D01*
X138510319Y-80915000D01*
X138430000Y-80907089D01*
X138349681Y-80915000D01*
X136742621Y-80915000D01*
X136709502Y-80805820D01*
X136650537Y-80695506D01*
X136571185Y-80598815D01*
X136474494Y-80519463D01*
X136364180Y-80460498D01*
X136244482Y-80424188D01*
X136120000Y-80411928D01*
X133120000Y-80411928D01*
X132995518Y-80424188D01*
X132875820Y-80460498D01*
X132765506Y-80519463D01*
X132668815Y-80598815D01*
X132589463Y-80695506D01*
X132530498Y-80805820D01*
X132494188Y-80925518D01*
X132481928Y-81050000D01*
X132481928Y-84050000D01*
X132494188Y-84174482D01*
X132530498Y-84294180D01*
X132589463Y-84404494D01*
X132668815Y-84501185D01*
X132765506Y-84580537D01*
X132875820Y-84639502D01*
X132995518Y-84675812D01*
X133120000Y-84688072D01*
X136120000Y-84688072D01*
X136244482Y-84675812D01*
X136364180Y-84639502D01*
X136474494Y-84580537D01*
X136571185Y-84501185D01*
X136650537Y-84404494D01*
X136709502Y-84294180D01*
X136742621Y-84185000D01*
X137752762Y-84185000D01*
X138269575Y-84701813D01*
X138320786Y-84764214D01*
X138569748Y-84968531D01*
X138797000Y-85090000D01*
X138569748Y-85211469D01*
X138320786Y-85415786D01*
X138269575Y-85478187D01*
X137752762Y-85995000D01*
X136004346Y-85995000D01*
X135980983Y-85971637D01*
X135631302Y-85737988D01*
X135242756Y-85577047D01*
X134830279Y-85495000D01*
X134409721Y-85495000D01*
X133997244Y-85577047D01*
X133608698Y-85737988D01*
X133259017Y-85971637D01*
X132961637Y-86269017D01*
X132727988Y-86618698D01*
X132567047Y-87007244D01*
X132485000Y-87419721D01*
X132485000Y-87840279D01*
X132567047Y-88252756D01*
X132727988Y-88641302D01*
X132961637Y-88990983D01*
X133259017Y-89288363D01*
X133608698Y-89522012D01*
X133997244Y-89682953D01*
X134409721Y-89765000D01*
X134830279Y-89765000D01*
X135242756Y-89682953D01*
X135631302Y-89522012D01*
X135980983Y-89288363D01*
X136004346Y-89265000D01*
X138349681Y-89265000D01*
X138430000Y-89272911D01*
X138510319Y-89265000D01*
X138510322Y-89265000D01*
X138750516Y-89241343D01*
X139058715Y-89147852D01*
X139342752Y-88996031D01*
X139591714Y-88791714D01*
X139642925Y-88729313D01*
X140159738Y-88212500D01*
X141050322Y-88212500D01*
X141290516Y-88188843D01*
X141598715Y-88095352D01*
X141882752Y-87943531D01*
X142075691Y-87785191D01*
X142088386Y-87778405D01*
X142222962Y-87667962D01*
X142227642Y-87662260D01*
X142142359Y-87823877D01*
X141983099Y-88359133D01*
X141931322Y-88915174D01*
X141989019Y-89470632D01*
X142153972Y-90004161D01*
X142402982Y-90470024D01*
X142790223Y-90710169D01*
X142720392Y-90780000D01*
X126390000Y-90780000D01*
X126390000Y-79400000D01*
X142720392Y-79400000D01*
X142790223Y-79469831D01*
G36*
X156820001Y-90780000D02*
G01*
X146839608Y-90780000D01*
X146769777Y-90710169D01*
X147157018Y-90470024D01*
X147417641Y-89976123D01*
X147576901Y-89440867D01*
X147628678Y-88884826D01*
X147590792Y-88520088D01*
X147645820Y-88549502D01*
X147765518Y-88585812D01*
X147890000Y-88598072D01*
X148304250Y-88595000D01*
X148463000Y-88436250D01*
X148463000Y-87512000D01*
X148717000Y-87512000D01*
X148717000Y-88436250D01*
X148875750Y-88595000D01*
X149290000Y-88598072D01*
X149414482Y-88585812D01*
X149534180Y-88549502D01*
X149644494Y-88490537D01*
X149741185Y-88411185D01*
X149820537Y-88314494D01*
X149879502Y-88204180D01*
X149915812Y-88084482D01*
X149925423Y-87986890D01*
X150323524Y-87986890D01*
X150368175Y-88134099D01*
X150493359Y-88396920D01*
X150667412Y-88630269D01*
X150883645Y-88825178D01*
X151133748Y-88974157D01*
X151408109Y-89071481D01*
X151638000Y-88950814D01*
X151638000Y-87757000D01*
X151892000Y-87757000D01*
X151892000Y-88950814D01*
X152121891Y-89071481D01*
X152396252Y-88974157D01*
X152646355Y-88825178D01*
X152862588Y-88630269D01*
X153036641Y-88396920D01*
X153161825Y-88134099D01*
X153206476Y-87986890D01*
X153085155Y-87757000D01*
X151892000Y-87757000D01*
X151638000Y-87757000D01*
X150444845Y-87757000D01*
X150323524Y-87986890D01*
X149925423Y-87986890D01*
X149928072Y-87960000D01*
X149925000Y-87670750D01*
X149766250Y-87512000D01*
X148717000Y-87512000D01*
X148463000Y-87512000D01*
X147413750Y-87512000D01*
X147309849Y-87615901D01*
X147157018Y-87329976D01*
X146769775Y-87089830D01*
X144959605Y-88900000D01*
X144973748Y-88914143D01*
X144794143Y-89093748D01*
X144780000Y-89079605D01*
X144765858Y-89093748D01*
X144586253Y-88914143D01*
X144600395Y-88900000D01*
X142790225Y-87089830D01*
X142437000Y-87308880D01*
X142442281Y-87291473D01*
X142487852Y-87206215D01*
X142581343Y-86898016D01*
X142612911Y-86577500D01*
X142612115Y-86569416D01*
X142700000Y-86578072D01*
X143175812Y-86578072D01*
X142969830Y-86910225D01*
X144780000Y-88720395D01*
X146590170Y-86910225D01*
X146360296Y-86539546D01*
X146395750Y-86575000D01*
X146850512Y-86578001D01*
X146975162Y-86567593D01*
X147095387Y-86533067D01*
X147206566Y-86475750D01*
X147304426Y-86397844D01*
X147385208Y-86302343D01*
X147441064Y-86201480D01*
X147512038Y-86287962D01*
X147518594Y-86293342D01*
X147438815Y-86358815D01*
X147359463Y-86455506D01*
X147300498Y-86565820D01*
X147264188Y-86685518D01*
X147251928Y-86810000D01*
X147255000Y-87099250D01*
X147413750Y-87258000D01*
X148463000Y-87258000D01*
X148463000Y-87238000D01*
X148717000Y-87238000D01*
X148717000Y-87258000D01*
X149766250Y-87258000D01*
X149925000Y-87099250D01*
X149928072Y-86810000D01*
X149915812Y-86685518D01*
X149879502Y-86565820D01*
X149820537Y-86455506D01*
X149741185Y-86358815D01*
X149661406Y-86293342D01*
X149667962Y-86287962D01*
X149778405Y-86153387D01*
X149860472Y-85999851D01*
X149905928Y-85850000D01*
X150486822Y-85850000D01*
X150611525Y-86036632D01*
X150818368Y-86243475D01*
X151000534Y-86365195D01*
X150883645Y-86434822D01*
X150667412Y-86629731D01*
X150493359Y-86863080D01*
X150368175Y-87125901D01*
X150323524Y-87273110D01*
X150444845Y-87503000D01*
X151638000Y-87503000D01*
X151638000Y-87483000D01*
X151892000Y-87483000D01*
X151892000Y-87503000D01*
X153085155Y-87503000D01*
X153206476Y-87273110D01*
X153161825Y-87125901D01*
X153036641Y-86863080D01*
X152862588Y-86629731D01*
X152646355Y-86434822D01*
X152529466Y-86365195D01*
X152711632Y-86243475D01*
X152918475Y-86036632D01*
X153080990Y-85793411D01*
X153192932Y-85523158D01*
X153250000Y-85236260D01*
X153250000Y-84943740D01*
X153192932Y-84656842D01*
X153080990Y-84386589D01*
X152918475Y-84143368D01*
X152786620Y-84011513D01*
X152859180Y-83989502D01*
X152969494Y-83930537D01*
X153066185Y-83851185D01*
X153145537Y-83754494D01*
X153204502Y-83644180D01*
X153240812Y-83524482D01*
X153253072Y-83400000D01*
X153253072Y-81700000D01*
X153240812Y-81575518D01*
X153204502Y-81455820D01*
X153145537Y-81345506D01*
X153066185Y-81248815D01*
X152969494Y-81169463D01*
X152859180Y-81110498D01*
X152739482Y-81074188D01*
X152615000Y-81061928D01*
X150915000Y-81061928D01*
X150790518Y-81074188D01*
X150670820Y-81110498D01*
X150560506Y-81169463D01*
X150463815Y-81248815D01*
X150384463Y-81345506D01*
X150325498Y-81455820D01*
X150289188Y-81575518D01*
X150276928Y-81700000D01*
X150276928Y-81790000D01*
X149042320Y-81790000D01*
X149004997Y-81786324D01*
X148967674Y-81790000D01*
X148967665Y-81790000D01*
X148856012Y-81800997D01*
X148712751Y-81844454D01*
X148580722Y-81915026D01*
X148580720Y-81915027D01*
X148580721Y-81915027D01*
X148493994Y-81986201D01*
X148493990Y-81986205D01*
X148464997Y-82009999D01*
X148441203Y-82038992D01*
X147435196Y-83045001D01*
X146842611Y-83045001D01*
X147157018Y-82850024D01*
X147417641Y-82356123D01*
X147576901Y-81820867D01*
X147628678Y-81264826D01*
X147570981Y-80709368D01*
X147406028Y-80175839D01*
X147157018Y-79709976D01*
X146769777Y-79469831D01*
X146839608Y-79400000D01*
X156820000Y-79400000D01*
X156820001Y-90780000D01*
G37*
X156820001Y-90780000D02*
X146839608Y-90780000D01*
X146769777Y-90710169D01*
X147157018Y-90470024D01*
X147417641Y-89976123D01*
X147576901Y-89440867D01*
X147628678Y-88884826D01*
X147590792Y-88520088D01*
X147645820Y-88549502D01*
X147765518Y-88585812D01*
X147890000Y-88598072D01*
X148304250Y-88595000D01*
X148463000Y-88436250D01*
X148463000Y-87512000D01*
X148717000Y-87512000D01*
X148717000Y-88436250D01*
X148875750Y-88595000D01*
X149290000Y-88598072D01*
X149414482Y-88585812D01*
X149534180Y-88549502D01*
X149644494Y-88490537D01*
X149741185Y-88411185D01*
X149820537Y-88314494D01*
X149879502Y-88204180D01*
X149915812Y-88084482D01*
X149925423Y-87986890D01*
X150323524Y-87986890D01*
X150368175Y-88134099D01*
X150493359Y-88396920D01*
X150667412Y-88630269D01*
X150883645Y-88825178D01*
X151133748Y-88974157D01*
X151408109Y-89071481D01*
X151638000Y-88950814D01*
X151638000Y-87757000D01*
X151892000Y-87757000D01*
X151892000Y-88950814D01*
X152121891Y-89071481D01*
X152396252Y-88974157D01*
X152646355Y-88825178D01*
X152862588Y-88630269D01*
X153036641Y-88396920D01*
X153161825Y-88134099D01*
X153206476Y-87986890D01*
X153085155Y-87757000D01*
X151892000Y-87757000D01*
X151638000Y-87757000D01*
X150444845Y-87757000D01*
X150323524Y-87986890D01*
X149925423Y-87986890D01*
X149928072Y-87960000D01*
X149925000Y-87670750D01*
X149766250Y-87512000D01*
X148717000Y-87512000D01*
X148463000Y-87512000D01*
X147413750Y-87512000D01*
X147309849Y-87615901D01*
X147157018Y-87329976D01*
X146769775Y-87089830D01*
X144959605Y-88900000D01*
X144973748Y-88914143D01*
X144794143Y-89093748D01*
X144780000Y-89079605D01*
X144765858Y-89093748D01*
X144586253Y-88914143D01*
X144600395Y-88900000D01*
X142790225Y-87089830D01*
X142437000Y-87308880D01*
X142442281Y-87291473D01*
X142487852Y-87206215D01*
X142581343Y-86898016D01*
X142612911Y-86577500D01*
X142612115Y-86569416D01*
X142700000Y-86578072D01*
X143175812Y-86578072D01*
X142969830Y-86910225D01*
X144780000Y-88720395D01*
X146590170Y-86910225D01*
X146360296Y-86539546D01*
X146395750Y-86575000D01*
X146850512Y-86578001D01*
X146975162Y-86567593D01*
X147095387Y-86533067D01*
X147206566Y-86475750D01*
X147304426Y-86397844D01*
X147385208Y-86302343D01*
X147441064Y-86201480D01*
X147512038Y-86287962D01*
X147518594Y-86293342D01*
X147438815Y-86358815D01*
X147359463Y-86455506D01*
X147300498Y-86565820D01*
X147264188Y-86685518D01*
X147251928Y-86810000D01*
X147255000Y-87099250D01*
X147413750Y-87258000D01*
X148463000Y-87258000D01*
X148463000Y-87238000D01*
X148717000Y-87238000D01*
X148717000Y-87258000D01*
X149766250Y-87258000D01*
X149925000Y-87099250D01*
X149928072Y-86810000D01*
X149915812Y-86685518D01*
X149879502Y-86565820D01*
X149820537Y-86455506D01*
X149741185Y-86358815D01*
X149661406Y-86293342D01*
X149667962Y-86287962D01*
X149778405Y-86153387D01*
X149860472Y-85999851D01*
X149905928Y-85850000D01*
X150486822Y-85850000D01*
X150611525Y-86036632D01*
X150818368Y-86243475D01*
X151000534Y-86365195D01*
X150883645Y-86434822D01*
X150667412Y-86629731D01*
X150493359Y-86863080D01*
X150368175Y-87125901D01*
X150323524Y-87273110D01*
X150444845Y-87503000D01*
X151638000Y-87503000D01*
X151638000Y-87483000D01*
X151892000Y-87483000D01*
X151892000Y-87503000D01*
X153085155Y-87503000D01*
X153206476Y-87273110D01*
X153161825Y-87125901D01*
X153036641Y-86863080D01*
X152862588Y-86629731D01*
X152646355Y-86434822D01*
X152529466Y-86365195D01*
X152711632Y-86243475D01*
X152918475Y-86036632D01*
X153080990Y-85793411D01*
X153192932Y-85523158D01*
X153250000Y-85236260D01*
X153250000Y-84943740D01*
X153192932Y-84656842D01*
X153080990Y-84386589D01*
X152918475Y-84143368D01*
X152786620Y-84011513D01*
X152859180Y-83989502D01*
X152969494Y-83930537D01*
X153066185Y-83851185D01*
X153145537Y-83754494D01*
X153204502Y-83644180D01*
X153240812Y-83524482D01*
X153253072Y-83400000D01*
X153253072Y-81700000D01*
X153240812Y-81575518D01*
X153204502Y-81455820D01*
X153145537Y-81345506D01*
X153066185Y-81248815D01*
X152969494Y-81169463D01*
X152859180Y-81110498D01*
X152739482Y-81074188D01*
X152615000Y-81061928D01*
X150915000Y-81061928D01*
X150790518Y-81074188D01*
X150670820Y-81110498D01*
X150560506Y-81169463D01*
X150463815Y-81248815D01*
X150384463Y-81345506D01*
X150325498Y-81455820D01*
X150289188Y-81575518D01*
X150276928Y-81700000D01*
X150276928Y-81790000D01*
X149042320Y-81790000D01*
X149004997Y-81786324D01*
X148967674Y-81790000D01*
X148967665Y-81790000D01*
X148856012Y-81800997D01*
X148712751Y-81844454D01*
X148580722Y-81915026D01*
X148580720Y-81915027D01*
X148580721Y-81915027D01*
X148493994Y-81986201D01*
X148493990Y-81986205D01*
X148464997Y-82009999D01*
X148441203Y-82038992D01*
X147435196Y-83045001D01*
X146842611Y-83045001D01*
X147157018Y-82850024D01*
X147417641Y-82356123D01*
X147576901Y-81820867D01*
X147628678Y-81264826D01*
X147570981Y-80709368D01*
X147406028Y-80175839D01*
X147157018Y-79709976D01*
X146769777Y-79469831D01*
X146839608Y-79400000D01*
X156820000Y-79400000D01*
X156820001Y-90780000D01*
G36*
X146336702Y-86515952D02*
G01*
X146237002Y-86463342D01*
X146237002Y-86416252D01*
X146336702Y-86515952D01*
G37*
X146336702Y-86515952D02*
X146237002Y-86463342D01*
X146237002Y-86416252D01*
X146336702Y-86515952D01*
G36*
X146237000Y-85766250D02*
G01*
X146257000Y-85786250D01*
X146257000Y-85813000D01*
X146237000Y-85813000D01*
X146237000Y-85887000D01*
X145983000Y-85887000D01*
X145983000Y-85813000D01*
X145963000Y-85813000D01*
X145963000Y-85786250D01*
X145983000Y-85766250D01*
X145983000Y-85593000D01*
X146237000Y-85593000D01*
X146237000Y-85766250D01*
G37*
X146237000Y-85766250D02*
X146257000Y-85786250D01*
X146257000Y-85813000D01*
X146237000Y-85813000D01*
X146237000Y-85887000D01*
X145983000Y-85887000D01*
X145983000Y-85813000D01*
X145963000Y-85813000D01*
X145963000Y-85786250D01*
X145983000Y-85766250D01*
X145983000Y-85593000D01*
X146237000Y-85593000D01*
X146237000Y-85766250D01*
G36*
X144973748Y-81265858D02*
G01*
X144959605Y-81280000D01*
X144973748Y-81294143D01*
X144794143Y-81473748D01*
X144780000Y-81459605D01*
X142969830Y-83269775D01*
X143175812Y-83601928D01*
X142700000Y-83601928D01*
X142612115Y-83610584D01*
X142612911Y-83602500D01*
X142581343Y-83281984D01*
X142487852Y-82973785D01*
X142442281Y-82888527D01*
X142437000Y-82871120D01*
X142790225Y-83090170D01*
X144600395Y-81280000D01*
X144586253Y-81265858D01*
X144765858Y-81086253D01*
X144780000Y-81100395D01*
X144794143Y-81086253D01*
X144973748Y-81265858D01*
G37*
X144973748Y-81265858D02*
X144959605Y-81280000D01*
X144973748Y-81294143D01*
X144794143Y-81473748D01*
X144780000Y-81459605D01*
X142969830Y-83269775D01*
X143175812Y-83601928D01*
X142700000Y-83601928D01*
X142612115Y-83610584D01*
X142612911Y-83602500D01*
X142581343Y-83281984D01*
X142487852Y-82973785D01*
X142442281Y-82888527D01*
X142437000Y-82871120D01*
X142790225Y-83090170D01*
X144600395Y-81280000D01*
X144586253Y-81265858D01*
X144765858Y-81086253D01*
X144780000Y-81100395D01*
X144794143Y-81086253D01*
X144973748Y-81265858D01*
G36*
X148463000Y-82012432D02*
G01*
X148441203Y-82038992D01*
X147435196Y-83045001D01*
X145247330Y-83045001D01*
X145209997Y-83041324D01*
X145172664Y-83045001D01*
X145061011Y-83055998D01*
X144917750Y-83099455D01*
X144785721Y-83170027D01*
X144669996Y-83265000D01*
X144646193Y-83294004D01*
X144524002Y-83416195D01*
X144494998Y-83439998D01*
X144439870Y-83507173D01*
X144400025Y-83555723D01*
X144362595Y-83625749D01*
X144324482Y-83614188D01*
X144200000Y-83601928D01*
X142700000Y-83601928D01*
X142612115Y-83610584D01*
X142612911Y-83602500D01*
X142581343Y-83281984D01*
X142487852Y-82973785D01*
X142442281Y-82888527D01*
X142415472Y-82800150D01*
X142333405Y-82646614D01*
X142222962Y-82512038D01*
X142088386Y-82401595D01*
X142075691Y-82394809D01*
X141882752Y-82236469D01*
X141598715Y-82084648D01*
X141290516Y-81991157D01*
X141097000Y-81972097D01*
X141097000Y-79400000D01*
X148463000Y-79400000D01*
X148463000Y-82012432D01*
G37*
X148463000Y-82012432D02*
X148441203Y-82038992D01*
X147435196Y-83045001D01*
X145247330Y-83045001D01*
X145209997Y-83041324D01*
X145172664Y-83045001D01*
X145061011Y-83055998D01*
X144917750Y-83099455D01*
X144785721Y-83170027D01*
X144669996Y-83265000D01*
X144646193Y-83294004D01*
X144524002Y-83416195D01*
X144494998Y-83439998D01*
X144439870Y-83507173D01*
X144400025Y-83555723D01*
X144362595Y-83625749D01*
X144324482Y-83614188D01*
X144200000Y-83601928D01*
X142700000Y-83601928D01*
X142612115Y-83610584D01*
X142612911Y-83602500D01*
X142581343Y-83281984D01*
X142487852Y-82973785D01*
X142442281Y-82888527D01*
X142415472Y-82800150D01*
X142333405Y-82646614D01*
X142222962Y-82512038D01*
X142088386Y-82401595D01*
X142075691Y-82394809D01*
X141882752Y-82236469D01*
X141598715Y-82084648D01*
X141290516Y-81991157D01*
X141097000Y-81972097D01*
X141097000Y-79400000D01*
X148463000Y-79400000D01*
X148463000Y-82012432D01*
G36*
X147447000Y-90780000D02*
G01*
X141097000Y-90780000D01*
X141097000Y-88207903D01*
X141290516Y-88188843D01*
X141598715Y-88095352D01*
X141882752Y-87943531D01*
X142075691Y-87785191D01*
X142088386Y-87778405D01*
X142222962Y-87667962D01*
X142333405Y-87533386D01*
X142415472Y-87379850D01*
X142442281Y-87291473D01*
X142487852Y-87206215D01*
X142581343Y-86898016D01*
X142612911Y-86577500D01*
X142612115Y-86569416D01*
X142700000Y-86578072D01*
X144200000Y-86578072D01*
X144324482Y-86565812D01*
X144444180Y-86529502D01*
X144502093Y-86498546D01*
X144598986Y-86489003D01*
X144605589Y-86487000D01*
X147447000Y-86487000D01*
X147447000Y-90780000D01*
G37*
X147447000Y-90780000D02*
X141097000Y-90780000D01*
X141097000Y-88207903D01*
X141290516Y-88188843D01*
X141598715Y-88095352D01*
X141882752Y-87943531D01*
X142075691Y-87785191D01*
X142088386Y-87778405D01*
X142222962Y-87667962D01*
X142333405Y-87533386D01*
X142415472Y-87379850D01*
X142442281Y-87291473D01*
X142487852Y-87206215D01*
X142581343Y-86898016D01*
X142612911Y-86577500D01*
X142612115Y-86569416D01*
X142700000Y-86578072D01*
X144200000Y-86578072D01*
X144324482Y-86565812D01*
X144444180Y-86529502D01*
X144502093Y-86498546D01*
X144598986Y-86489003D01*
X144605589Y-86487000D01*
X147447000Y-86487000D01*
X147447000Y-90780000D01*
M02*
