G04 #@! TF.GenerationSoftware,KiCad,Pcbnew,5.1.5*
G04 #@! TF.CreationDate,2020-01-04T21:59:29+01:00*
G04 #@! TF.ProjectId,cs_ina199,63735f69-6e61-4313-9939-2e6b69636164,rev?*
G04 #@! TF.SameCoordinates,Original*
G04 #@! TF.FileFunction,Soldermask,Bot*
G04 #@! TF.FilePolarity,Negative*
%FSLAX46Y46*%
G04 Gerber Fmt 4.6, Leading zero omitted, Abs format (unit mm)*
G04 Created by KiCad (PCBNEW 5.1.5) date 2020-01-04 21:59:29*
%MOMM*%
%LPD*%
G04 APERTURE LIST*
%ADD10C,0.100000*%
G04 APERTURE END LIST*
D10*
G36*
X145055880Y-86659776D02*
G01*
X145436593Y-86735504D01*
X145846249Y-86905189D01*
X146214929Y-87151534D01*
X146528466Y-87465071D01*
X146774811Y-87833751D01*
X146944496Y-88243407D01*
X147031000Y-88678296D01*
X147031000Y-89121704D01*
X146944496Y-89556593D01*
X146774811Y-89966249D01*
X146528466Y-90334929D01*
X146214929Y-90648466D01*
X145846249Y-90894811D01*
X145436593Y-91064496D01*
X145055880Y-91140224D01*
X145001705Y-91151000D01*
X144558295Y-91151000D01*
X144504120Y-91140224D01*
X144123407Y-91064496D01*
X143713751Y-90894811D01*
X143345071Y-90648466D01*
X143031534Y-90334929D01*
X142785189Y-89966249D01*
X142615504Y-89556593D01*
X142529000Y-89121704D01*
X142529000Y-88678296D01*
X142615504Y-88243407D01*
X142785189Y-87833751D01*
X143031534Y-87465071D01*
X143345071Y-87151534D01*
X143713751Y-86905189D01*
X144123407Y-86735504D01*
X144504120Y-86659776D01*
X144558295Y-86649000D01*
X145001705Y-86649000D01*
X145055880Y-86659776D01*
G37*
G36*
X134922585Y-86108802D02*
G01*
X135072410Y-86138604D01*
X135354674Y-86255521D01*
X135608705Y-86425259D01*
X135824741Y-86641295D01*
X135994479Y-86895326D01*
X136100603Y-87151534D01*
X136111396Y-87177591D01*
X136168580Y-87465071D01*
X136171000Y-87477240D01*
X136171000Y-87782760D01*
X136111396Y-88082410D01*
X135994479Y-88364674D01*
X135824741Y-88618705D01*
X135608705Y-88834741D01*
X135354674Y-89004479D01*
X135072410Y-89121396D01*
X134922585Y-89151198D01*
X134772761Y-89181000D01*
X134467239Y-89181000D01*
X134317415Y-89151198D01*
X134167590Y-89121396D01*
X133885326Y-89004479D01*
X133631295Y-88834741D01*
X133415259Y-88618705D01*
X133245521Y-88364674D01*
X133128604Y-88082410D01*
X133069000Y-87782760D01*
X133069000Y-87477240D01*
X133071421Y-87465071D01*
X133128604Y-87177591D01*
X133139397Y-87151534D01*
X133245521Y-86895326D01*
X133415259Y-86641295D01*
X133631295Y-86425259D01*
X133885326Y-86255521D01*
X134167590Y-86138604D01*
X134317415Y-86108802D01*
X134467239Y-86079000D01*
X134772761Y-86079000D01*
X134922585Y-86108802D01*
G37*
G36*
X151878512Y-86733927D02*
G01*
X152027812Y-86763624D01*
X152191784Y-86831544D01*
X152339354Y-86930147D01*
X152464853Y-87055646D01*
X152563456Y-87203216D01*
X152631376Y-87367188D01*
X152666000Y-87541259D01*
X152666000Y-87718741D01*
X152631376Y-87892812D01*
X152563456Y-88056784D01*
X152464853Y-88204354D01*
X152339354Y-88329853D01*
X152191784Y-88428456D01*
X152027812Y-88496376D01*
X151878512Y-88526073D01*
X151853742Y-88531000D01*
X151676258Y-88531000D01*
X151651488Y-88526073D01*
X151502188Y-88496376D01*
X151338216Y-88428456D01*
X151190646Y-88329853D01*
X151065147Y-88204354D01*
X150966544Y-88056784D01*
X150898624Y-87892812D01*
X150864000Y-87718741D01*
X150864000Y-87541259D01*
X150898624Y-87367188D01*
X150966544Y-87203216D01*
X151065147Y-87055646D01*
X151190646Y-86930147D01*
X151338216Y-86831544D01*
X151502188Y-86763624D01*
X151651488Y-86733927D01*
X151676258Y-86729000D01*
X151853742Y-86729000D01*
X151878512Y-86733927D01*
G37*
G36*
X151878512Y-84193927D02*
G01*
X152027812Y-84223624D01*
X152191784Y-84291544D01*
X152339354Y-84390147D01*
X152464853Y-84515646D01*
X152563456Y-84663216D01*
X152631376Y-84827188D01*
X152666000Y-85001259D01*
X152666000Y-85178741D01*
X152631376Y-85352812D01*
X152563456Y-85516784D01*
X152464853Y-85664354D01*
X152339354Y-85789853D01*
X152191784Y-85888456D01*
X152027812Y-85956376D01*
X151878512Y-85986073D01*
X151853742Y-85991000D01*
X151676258Y-85991000D01*
X151651488Y-85986073D01*
X151502188Y-85956376D01*
X151338216Y-85888456D01*
X151190646Y-85789853D01*
X151065147Y-85664354D01*
X150966544Y-85516784D01*
X150898624Y-85352812D01*
X150864000Y-85178741D01*
X150864000Y-85001259D01*
X150898624Y-84827188D01*
X150966544Y-84663216D01*
X151065147Y-84515646D01*
X151190646Y-84390147D01*
X151338216Y-84291544D01*
X151502188Y-84223624D01*
X151651488Y-84193927D01*
X151676258Y-84189000D01*
X151853742Y-84189000D01*
X151878512Y-84193927D01*
G37*
G36*
X136171000Y-84101000D02*
G01*
X133069000Y-84101000D01*
X133069000Y-80999000D01*
X136171000Y-80999000D01*
X136171000Y-84101000D01*
G37*
G36*
X145055880Y-79039776D02*
G01*
X145436593Y-79115504D01*
X145846249Y-79285189D01*
X146214929Y-79531534D01*
X146528466Y-79845071D01*
X146774811Y-80213751D01*
X146944496Y-80623407D01*
X147031000Y-81058296D01*
X147031000Y-81501704D01*
X146944496Y-81936593D01*
X146774811Y-82346249D01*
X146528466Y-82714929D01*
X146214929Y-83028466D01*
X145846249Y-83274811D01*
X145436593Y-83444496D01*
X145055880Y-83520224D01*
X145001705Y-83531000D01*
X144558295Y-83531000D01*
X144504120Y-83520224D01*
X144123407Y-83444496D01*
X143713751Y-83274811D01*
X143345071Y-83028466D01*
X143031534Y-82714929D01*
X142785189Y-82346249D01*
X142615504Y-81936593D01*
X142529000Y-81501704D01*
X142529000Y-81058296D01*
X142615504Y-80623407D01*
X142785189Y-80213751D01*
X143031534Y-79845071D01*
X143345071Y-79531534D01*
X143713751Y-79285189D01*
X144123407Y-79115504D01*
X144504120Y-79039776D01*
X144558295Y-79029000D01*
X145001705Y-79029000D01*
X145055880Y-79039776D01*
G37*
G36*
X152666000Y-83451000D02*
G01*
X150864000Y-83451000D01*
X150864000Y-81649000D01*
X152666000Y-81649000D01*
X152666000Y-83451000D01*
G37*
M02*
