M48
; DRILL file {KiCad 5.1.5} date za 04 jan 2020 21:59:43 CET
; FORMAT={-:-/ absolute / inch / decimal}
; #@! TF.CreationDate,2020-01-04T21:59:43+01:00
; #@! TF.GenerationSoftware,Kicad,Pcbnew,5.1.5
; #@! TF.FileFunction,Plated,1,2,PTH
FMAT,2
INCH
T1C0.0157
T2C0.0394
T3C0.0598
T4C0.0866
%
G90
G05
T1
X5.635Y-3.5
X5.6541Y-3.4541
X5.6541Y-3.5459
X5.7Y-3.435
X5.7Y-3.565
X5.7459Y-3.4541
X5.7459Y-3.5459
X5.765Y-3.5
X5.635Y-3.2
X5.6541Y-3.1541
X5.6541Y-3.2459
X5.7Y-3.135
X5.7Y-3.265
X5.7459Y-3.1541
X5.7459Y-3.2459
X5.765Y-3.2
T2
X5.975Y-3.25
X5.975Y-3.35
X5.975Y-3.45
T3
X5.3Y-3.25
X5.3Y-3.45
T4
X5.7Y-3.5
X5.7Y-3.2
T0
M30
