G04 #@! TF.GenerationSoftware,KiCad,Pcbnew,5.1.5*
G04 #@! TF.CreationDate,2020-01-04T21:59:29+01:00*
G04 #@! TF.ProjectId,cs_ina199,63735f69-6e61-4313-9939-2e6b69636164,rev?*
G04 #@! TF.SameCoordinates,Original*
G04 #@! TF.FileFunction,Legend,Top*
G04 #@! TF.FilePolarity,Positive*
%FSLAX46Y46*%
G04 Gerber Fmt 4.6, Leading zero omitted, Abs format (unit mm)*
G04 Created by KiCad (PCBNEW 5.1.5) date 2020-01-04 21:59:29*
%MOMM*%
%LPD*%
G04 APERTURE LIST*
%ADD10C,0.150000*%
%ADD11C,0.120000*%
G04 APERTURE END LIST*
D10*
X163361619Y-81375714D02*
X163361619Y-82042380D01*
X162361619Y-81613809D01*
X162409238Y-82470952D02*
X162361619Y-82470952D01*
X162266380Y-82423333D01*
X162218761Y-82375714D01*
X163361619Y-83328095D02*
X163361619Y-83137619D01*
X163314000Y-83042380D01*
X163266380Y-82994761D01*
X163123523Y-82899523D01*
X162933047Y-82851904D01*
X162552095Y-82851904D01*
X162456857Y-82899523D01*
X162409238Y-82947142D01*
X162361619Y-83042380D01*
X162361619Y-83232857D01*
X162409238Y-83328095D01*
X162456857Y-83375714D01*
X162552095Y-83423333D01*
X162790190Y-83423333D01*
X162885428Y-83375714D01*
X162933047Y-83328095D01*
X162980666Y-83232857D01*
X162980666Y-83042380D01*
X162933047Y-82947142D01*
X162885428Y-82899523D01*
X162790190Y-82851904D01*
X163266380Y-83804285D02*
X163314000Y-83851904D01*
X163361619Y-83947142D01*
X163361619Y-84185238D01*
X163314000Y-84280476D01*
X163266380Y-84328095D01*
X163171142Y-84375714D01*
X163075904Y-84375714D01*
X162933047Y-84328095D01*
X162361619Y-83756666D01*
X162361619Y-84375714D01*
X163361619Y-84994761D02*
X163361619Y-85090000D01*
X163314000Y-85185238D01*
X163266380Y-85232857D01*
X163171142Y-85280476D01*
X162980666Y-85328095D01*
X162742571Y-85328095D01*
X162552095Y-85280476D01*
X162456857Y-85232857D01*
X162409238Y-85185238D01*
X162361619Y-85090000D01*
X162361619Y-84994761D01*
X162409238Y-84899523D01*
X162456857Y-84851904D01*
X162552095Y-84804285D01*
X162742571Y-84756666D01*
X162980666Y-84756666D01*
X163171142Y-84804285D01*
X163266380Y-84851904D01*
X163314000Y-84899523D01*
X163361619Y-84994761D01*
X162361619Y-86518571D02*
X163028285Y-86518571D01*
X162933047Y-86518571D02*
X162980666Y-86566190D01*
X163028285Y-86661428D01*
X163028285Y-86804285D01*
X162980666Y-86899523D01*
X162885428Y-86947142D01*
X162361619Y-86947142D01*
X162885428Y-86947142D02*
X162980666Y-86994761D01*
X163028285Y-87090000D01*
X163028285Y-87232857D01*
X162980666Y-87328095D01*
X162885428Y-87375714D01*
X162361619Y-87375714D01*
X162361619Y-87851904D02*
X163028285Y-87851904D01*
X162933047Y-87851904D02*
X162980666Y-87899523D01*
X163028285Y-87994761D01*
X163028285Y-88137619D01*
X162980666Y-88232857D01*
X162885428Y-88280476D01*
X162361619Y-88280476D01*
X162885428Y-88280476D02*
X162980666Y-88328095D01*
X163028285Y-88423333D01*
X163028285Y-88566190D01*
X162980666Y-88661428D01*
X162885428Y-88709047D01*
X162361619Y-88709047D01*
D11*
X161544000Y-81280000D02*
X161544000Y-88900000D01*
X160528000Y-81280000D02*
X162130421Y-81280000D01*
X160528000Y-88900000D02*
X162130421Y-88900000D01*
X161544000Y-88900000D02*
X160957579Y-87773496D01*
X161544000Y-88900000D02*
X162130421Y-87773496D01*
X161544000Y-81280000D02*
X160957579Y-82406504D01*
X161544000Y-81280000D02*
X162130421Y-82406504D01*
D10*
X127127142Y-88082380D02*
X126650952Y-88082380D01*
X126650952Y-87082380D01*
X127650952Y-87082380D02*
X127841428Y-87082380D01*
X127936666Y-87130000D01*
X128031904Y-87225238D01*
X128079523Y-87415714D01*
X128079523Y-87749047D01*
X128031904Y-87939523D01*
X127936666Y-88034761D01*
X127841428Y-88082380D01*
X127650952Y-88082380D01*
X127555714Y-88034761D01*
X127460476Y-87939523D01*
X127412857Y-87749047D01*
X127412857Y-87415714D01*
X127460476Y-87225238D01*
X127555714Y-87130000D01*
X127650952Y-87082380D01*
X128460476Y-87796666D02*
X128936666Y-87796666D01*
X128365238Y-88082380D02*
X128698571Y-87082380D01*
X129031904Y-88082380D01*
X129365238Y-88082380D02*
X129365238Y-87082380D01*
X129603333Y-87082380D01*
X129746190Y-87130000D01*
X129841428Y-87225238D01*
X129889047Y-87320476D01*
X129936666Y-87510952D01*
X129936666Y-87653809D01*
X129889047Y-87844285D01*
X129841428Y-87939523D01*
X129746190Y-88034761D01*
X129603333Y-88082380D01*
X129365238Y-88082380D01*
X126936666Y-83002380D02*
X126936666Y-82002380D01*
X127317619Y-82002380D01*
X127412857Y-82050000D01*
X127460476Y-82097619D01*
X127508095Y-82192857D01*
X127508095Y-82335714D01*
X127460476Y-82430952D01*
X127412857Y-82478571D01*
X127317619Y-82526190D01*
X126936666Y-82526190D01*
X127841428Y-82002380D02*
X128079523Y-83002380D01*
X128270000Y-82288095D01*
X128460476Y-83002380D01*
X128698571Y-82002380D01*
X129650952Y-83002380D02*
X129317619Y-82526190D01*
X129079523Y-83002380D02*
X129079523Y-82002380D01*
X129460476Y-82002380D01*
X129555714Y-82050000D01*
X129603333Y-82097619D01*
X129650952Y-82192857D01*
X129650952Y-82335714D01*
X129603333Y-82430952D01*
X129555714Y-82478571D01*
X129460476Y-82526190D01*
X129079523Y-82526190D01*
X153940000Y-82002380D02*
X154130476Y-82002380D01*
X154225714Y-82050000D01*
X154320952Y-82145238D01*
X154368571Y-82335714D01*
X154368571Y-82669047D01*
X154320952Y-82859523D01*
X154225714Y-82954761D01*
X154130476Y-83002380D01*
X153940000Y-83002380D01*
X153844761Y-82954761D01*
X153749523Y-82859523D01*
X153701904Y-82669047D01*
X153701904Y-82335714D01*
X153749523Y-82145238D01*
X153844761Y-82050000D01*
X153940000Y-82002380D01*
X154797142Y-82002380D02*
X154797142Y-82811904D01*
X154844761Y-82907142D01*
X154892380Y-82954761D01*
X154987619Y-83002380D01*
X155178095Y-83002380D01*
X155273333Y-82954761D01*
X155320952Y-82907142D01*
X155368571Y-82811904D01*
X155368571Y-82002380D01*
X155701904Y-82002380D02*
X156273333Y-82002380D01*
X155987619Y-83002380D02*
X155987619Y-82002380D01*
X153606666Y-84542380D02*
X153940000Y-85542380D01*
X154273333Y-84542380D01*
X155178095Y-85447142D02*
X155130476Y-85494761D01*
X154987619Y-85542380D01*
X154892380Y-85542380D01*
X154749523Y-85494761D01*
X154654285Y-85399523D01*
X154606666Y-85304285D01*
X154559047Y-85113809D01*
X154559047Y-84970952D01*
X154606666Y-84780476D01*
X154654285Y-84685238D01*
X154749523Y-84590000D01*
X154892380Y-84542380D01*
X154987619Y-84542380D01*
X155130476Y-84590000D01*
X155178095Y-84637619D01*
X156178095Y-85447142D02*
X156130476Y-85494761D01*
X155987619Y-85542380D01*
X155892380Y-85542380D01*
X155749523Y-85494761D01*
X155654285Y-85399523D01*
X155606666Y-85304285D01*
X155559047Y-85113809D01*
X155559047Y-84970952D01*
X155606666Y-84780476D01*
X155654285Y-84685238D01*
X155749523Y-84590000D01*
X155892380Y-84542380D01*
X155987619Y-84542380D01*
X156130476Y-84590000D01*
X156178095Y-84637619D01*
X154178095Y-87130000D02*
X154082857Y-87082380D01*
X153940000Y-87082380D01*
X153797142Y-87130000D01*
X153701904Y-87225238D01*
X153654285Y-87320476D01*
X153606666Y-87510952D01*
X153606666Y-87653809D01*
X153654285Y-87844285D01*
X153701904Y-87939523D01*
X153797142Y-88034761D01*
X153940000Y-88082380D01*
X154035238Y-88082380D01*
X154178095Y-88034761D01*
X154225714Y-87987142D01*
X154225714Y-87653809D01*
X154035238Y-87653809D01*
X154654285Y-88082380D02*
X154654285Y-87082380D01*
X155225714Y-88082380D01*
X155225714Y-87082380D01*
X155701904Y-88082380D02*
X155701904Y-87082380D01*
X155940000Y-87082380D01*
X156082857Y-87130000D01*
X156178095Y-87225238D01*
X156225714Y-87320476D01*
X156273333Y-87510952D01*
X156273333Y-87653809D01*
X156225714Y-87844285D01*
X156178095Y-87939523D01*
X156082857Y-88034761D01*
X155940000Y-88082380D01*
X155701904Y-88082380D01*
D11*
X147880000Y-86098748D02*
X147880000Y-86621252D01*
X149300000Y-86098748D02*
X149300000Y-86621252D01*
X145480000Y-83930000D02*
X144080000Y-83930000D01*
X144080000Y-86250000D02*
X145980000Y-86250000D01*
X140060000Y-84487936D02*
X140060000Y-85692064D01*
X141880000Y-84487936D02*
X141880000Y-85692064D01*
X130810000Y-80010000D02*
X130810000Y-90170000D01*
X138430000Y-80010000D02*
X130810000Y-80010000D01*
X138430000Y-90170000D02*
X138430000Y-80010000D01*
X130810000Y-90170000D02*
X138430000Y-90170000D01*
X132080000Y-90170000D02*
X132080000Y-80010000D01*
X150435000Y-81220000D02*
X151765000Y-81220000D01*
X150435000Y-82550000D02*
X150435000Y-81220000D01*
X150435000Y-83820000D02*
X153095000Y-83820000D01*
X153095000Y-83820000D02*
X153095000Y-88960000D01*
X150435000Y-83820000D02*
X150435000Y-88960000D01*
X150435000Y-88960000D02*
X153095000Y-88960000D01*
D10*
X148947142Y-89574666D02*
X148994761Y-89622285D01*
X149042380Y-89765142D01*
X149042380Y-89860380D01*
X148994761Y-90003238D01*
X148899523Y-90098476D01*
X148804285Y-90146095D01*
X148613809Y-90193714D01*
X148470952Y-90193714D01*
X148280476Y-90146095D01*
X148185238Y-90098476D01*
X148090000Y-90003238D01*
X148042380Y-89860380D01*
X148042380Y-89765142D01*
X148090000Y-89622285D01*
X148137619Y-89574666D01*
X149042380Y-88622285D02*
X149042380Y-89193714D01*
X149042380Y-88908000D02*
X148042380Y-88908000D01*
X148185238Y-89003238D01*
X148280476Y-89098476D01*
X148328095Y-89193714D01*
X147066095Y-83272380D02*
X147066095Y-84081904D01*
X147113714Y-84177142D01*
X147161333Y-84224761D01*
X147256571Y-84272380D01*
X147447047Y-84272380D01*
X147542285Y-84224761D01*
X147589904Y-84177142D01*
X147637523Y-84081904D01*
X147637523Y-83272380D01*
X148637523Y-84272380D02*
X148066095Y-84272380D01*
X148351809Y-84272380D02*
X148351809Y-83272380D01*
X148256571Y-83415238D01*
X148161333Y-83510476D01*
X148066095Y-83558095D01*
X141422380Y-88685666D02*
X140946190Y-89019000D01*
X141422380Y-89257095D02*
X140422380Y-89257095D01*
X140422380Y-88876142D01*
X140470000Y-88780904D01*
X140517619Y-88733285D01*
X140612857Y-88685666D01*
X140755714Y-88685666D01*
X140850952Y-88733285D01*
X140898571Y-88780904D01*
X140946190Y-88876142D01*
X140946190Y-89257095D01*
X141422380Y-87733285D02*
X141422380Y-88304714D01*
X141422380Y-88019000D02*
X140422380Y-88019000D01*
X140565238Y-88114238D01*
X140660476Y-88209476D01*
X140708095Y-88304714D01*
X139366666Y-80097380D02*
X139366666Y-80811666D01*
X139319047Y-80954523D01*
X139223809Y-81049761D01*
X139080952Y-81097380D01*
X138985714Y-81097380D01*
X139795238Y-80192619D02*
X139842857Y-80145000D01*
X139938095Y-80097380D01*
X140176190Y-80097380D01*
X140271428Y-80145000D01*
X140319047Y-80192619D01*
X140366666Y-80287857D01*
X140366666Y-80383095D01*
X140319047Y-80525952D01*
X139747619Y-81097380D01*
X140366666Y-81097380D01*
X151431666Y-79672380D02*
X151431666Y-80386666D01*
X151384047Y-80529523D01*
X151288809Y-80624761D01*
X151145952Y-80672380D01*
X151050714Y-80672380D01*
X152431666Y-80672380D02*
X151860238Y-80672380D01*
X152145952Y-80672380D02*
X152145952Y-79672380D01*
X152050714Y-79815238D01*
X151955476Y-79910476D01*
X151860238Y-79958095D01*
M02*
