G04 #@! TF.GenerationSoftware,KiCad,Pcbnew,5.1.5*
G04 #@! TF.CreationDate,2020-01-04T21:59:29+01:00*
G04 #@! TF.ProjectId,cs_ina199,63735f69-6e61-4313-9939-2e6b69636164,rev?*
G04 #@! TF.SameCoordinates,Original*
G04 #@! TF.FileFunction,Paste,Top*
G04 #@! TF.FilePolarity,Positive*
%FSLAX46Y46*%
G04 Gerber Fmt 4.6, Leading zero omitted, Abs format (unit mm)*
G04 Created by KiCad (PCBNEW 5.1.5) date 2020-01-04 21:59:29*
%MOMM*%
%LPD*%
G04 APERTURE LIST*
%ADD10C,0.100000*%
%ADD11R,1.500000X0.400000*%
G04 APERTURE END LIST*
D10*
G36*
X149064505Y-86811204D02*
G01*
X149088773Y-86814804D01*
X149112572Y-86820765D01*
X149135671Y-86829030D01*
X149157850Y-86839520D01*
X149178893Y-86852132D01*
X149198599Y-86866747D01*
X149216777Y-86883223D01*
X149233253Y-86901401D01*
X149247868Y-86921107D01*
X149260480Y-86942150D01*
X149270970Y-86964329D01*
X149279235Y-86987428D01*
X149285196Y-87011227D01*
X149288796Y-87035495D01*
X149290000Y-87059999D01*
X149290000Y-87710001D01*
X149288796Y-87734505D01*
X149285196Y-87758773D01*
X149279235Y-87782572D01*
X149270970Y-87805671D01*
X149260480Y-87827850D01*
X149247868Y-87848893D01*
X149233253Y-87868599D01*
X149216777Y-87886777D01*
X149198599Y-87903253D01*
X149178893Y-87917868D01*
X149157850Y-87930480D01*
X149135671Y-87940970D01*
X149112572Y-87949235D01*
X149088773Y-87955196D01*
X149064505Y-87958796D01*
X149040001Y-87960000D01*
X148139999Y-87960000D01*
X148115495Y-87958796D01*
X148091227Y-87955196D01*
X148067428Y-87949235D01*
X148044329Y-87940970D01*
X148022150Y-87930480D01*
X148001107Y-87917868D01*
X147981401Y-87903253D01*
X147963223Y-87886777D01*
X147946747Y-87868599D01*
X147932132Y-87848893D01*
X147919520Y-87827850D01*
X147909030Y-87805671D01*
X147900765Y-87782572D01*
X147894804Y-87758773D01*
X147891204Y-87734505D01*
X147890000Y-87710001D01*
X147890000Y-87059999D01*
X147891204Y-87035495D01*
X147894804Y-87011227D01*
X147900765Y-86987428D01*
X147909030Y-86964329D01*
X147919520Y-86942150D01*
X147932132Y-86921107D01*
X147946747Y-86901401D01*
X147963223Y-86883223D01*
X147981401Y-86866747D01*
X148001107Y-86852132D01*
X148022150Y-86839520D01*
X148044329Y-86829030D01*
X148067428Y-86820765D01*
X148091227Y-86814804D01*
X148115495Y-86811204D01*
X148139999Y-86810000D01*
X149040001Y-86810000D01*
X149064505Y-86811204D01*
G37*
G36*
X149064505Y-84761204D02*
G01*
X149088773Y-84764804D01*
X149112572Y-84770765D01*
X149135671Y-84779030D01*
X149157850Y-84789520D01*
X149178893Y-84802132D01*
X149198599Y-84816747D01*
X149216777Y-84833223D01*
X149233253Y-84851401D01*
X149247868Y-84871107D01*
X149260480Y-84892150D01*
X149270970Y-84914329D01*
X149279235Y-84937428D01*
X149285196Y-84961227D01*
X149288796Y-84985495D01*
X149290000Y-85009999D01*
X149290000Y-85660001D01*
X149288796Y-85684505D01*
X149285196Y-85708773D01*
X149279235Y-85732572D01*
X149270970Y-85755671D01*
X149260480Y-85777850D01*
X149247868Y-85798893D01*
X149233253Y-85818599D01*
X149216777Y-85836777D01*
X149198599Y-85853253D01*
X149178893Y-85867868D01*
X149157850Y-85880480D01*
X149135671Y-85890970D01*
X149112572Y-85899235D01*
X149088773Y-85905196D01*
X149064505Y-85908796D01*
X149040001Y-85910000D01*
X148139999Y-85910000D01*
X148115495Y-85908796D01*
X148091227Y-85905196D01*
X148067428Y-85899235D01*
X148044329Y-85890970D01*
X148022150Y-85880480D01*
X148001107Y-85867868D01*
X147981401Y-85853253D01*
X147963223Y-85836777D01*
X147946747Y-85818599D01*
X147932132Y-85798893D01*
X147919520Y-85777850D01*
X147909030Y-85755671D01*
X147900765Y-85732572D01*
X147894804Y-85708773D01*
X147891204Y-85684505D01*
X147890000Y-85660001D01*
X147890000Y-85009999D01*
X147891204Y-84985495D01*
X147894804Y-84961227D01*
X147900765Y-84937428D01*
X147909030Y-84914329D01*
X147919520Y-84892150D01*
X147932132Y-84871107D01*
X147946747Y-84851401D01*
X147963223Y-84833223D01*
X147981401Y-84816747D01*
X148001107Y-84802132D01*
X148022150Y-84789520D01*
X148044329Y-84779030D01*
X148067428Y-84770765D01*
X148091227Y-84764804D01*
X148115495Y-84761204D01*
X148139999Y-84760000D01*
X149040001Y-84760000D01*
X149064505Y-84761204D01*
G37*
D11*
X143450000Y-85740000D03*
X143450000Y-85090000D03*
X143450000Y-84440000D03*
X146110000Y-84440000D03*
X146110000Y-85090000D03*
X146110000Y-85740000D03*
D10*
G36*
X141619504Y-85866204D02*
G01*
X141643773Y-85869804D01*
X141667571Y-85875765D01*
X141690671Y-85884030D01*
X141712849Y-85894520D01*
X141733893Y-85907133D01*
X141753598Y-85921747D01*
X141771777Y-85938223D01*
X141788253Y-85956402D01*
X141802867Y-85976107D01*
X141815480Y-85997151D01*
X141825970Y-86019329D01*
X141834235Y-86042429D01*
X141840196Y-86066227D01*
X141843796Y-86090496D01*
X141845000Y-86115000D01*
X141845000Y-87040000D01*
X141843796Y-87064504D01*
X141840196Y-87088773D01*
X141834235Y-87112571D01*
X141825970Y-87135671D01*
X141815480Y-87157849D01*
X141802867Y-87178893D01*
X141788253Y-87198598D01*
X141771777Y-87216777D01*
X141753598Y-87233253D01*
X141733893Y-87247867D01*
X141712849Y-87260480D01*
X141690671Y-87270970D01*
X141667571Y-87279235D01*
X141643773Y-87285196D01*
X141619504Y-87288796D01*
X141595000Y-87290000D01*
X140345000Y-87290000D01*
X140320496Y-87288796D01*
X140296227Y-87285196D01*
X140272429Y-87279235D01*
X140249329Y-87270970D01*
X140227151Y-87260480D01*
X140206107Y-87247867D01*
X140186402Y-87233253D01*
X140168223Y-87216777D01*
X140151747Y-87198598D01*
X140137133Y-87178893D01*
X140124520Y-87157849D01*
X140114030Y-87135671D01*
X140105765Y-87112571D01*
X140099804Y-87088773D01*
X140096204Y-87064504D01*
X140095000Y-87040000D01*
X140095000Y-86115000D01*
X140096204Y-86090496D01*
X140099804Y-86066227D01*
X140105765Y-86042429D01*
X140114030Y-86019329D01*
X140124520Y-85997151D01*
X140137133Y-85976107D01*
X140151747Y-85956402D01*
X140168223Y-85938223D01*
X140186402Y-85921747D01*
X140206107Y-85907133D01*
X140227151Y-85894520D01*
X140249329Y-85884030D01*
X140272429Y-85875765D01*
X140296227Y-85869804D01*
X140320496Y-85866204D01*
X140345000Y-85865000D01*
X141595000Y-85865000D01*
X141619504Y-85866204D01*
G37*
G36*
X141619504Y-82891204D02*
G01*
X141643773Y-82894804D01*
X141667571Y-82900765D01*
X141690671Y-82909030D01*
X141712849Y-82919520D01*
X141733893Y-82932133D01*
X141753598Y-82946747D01*
X141771777Y-82963223D01*
X141788253Y-82981402D01*
X141802867Y-83001107D01*
X141815480Y-83022151D01*
X141825970Y-83044329D01*
X141834235Y-83067429D01*
X141840196Y-83091227D01*
X141843796Y-83115496D01*
X141845000Y-83140000D01*
X141845000Y-84065000D01*
X141843796Y-84089504D01*
X141840196Y-84113773D01*
X141834235Y-84137571D01*
X141825970Y-84160671D01*
X141815480Y-84182849D01*
X141802867Y-84203893D01*
X141788253Y-84223598D01*
X141771777Y-84241777D01*
X141753598Y-84258253D01*
X141733893Y-84272867D01*
X141712849Y-84285480D01*
X141690671Y-84295970D01*
X141667571Y-84304235D01*
X141643773Y-84310196D01*
X141619504Y-84313796D01*
X141595000Y-84315000D01*
X140345000Y-84315000D01*
X140320496Y-84313796D01*
X140296227Y-84310196D01*
X140272429Y-84304235D01*
X140249329Y-84295970D01*
X140227151Y-84285480D01*
X140206107Y-84272867D01*
X140186402Y-84258253D01*
X140168223Y-84241777D01*
X140151747Y-84223598D01*
X140137133Y-84203893D01*
X140124520Y-84182849D01*
X140114030Y-84160671D01*
X140105765Y-84137571D01*
X140099804Y-84113773D01*
X140096204Y-84089504D01*
X140095000Y-84065000D01*
X140095000Y-83140000D01*
X140096204Y-83115496D01*
X140099804Y-83091227D01*
X140105765Y-83067429D01*
X140114030Y-83044329D01*
X140124520Y-83022151D01*
X140137133Y-83001107D01*
X140151747Y-82981402D01*
X140168223Y-82963223D01*
X140186402Y-82946747D01*
X140206107Y-82932133D01*
X140227151Y-82919520D01*
X140249329Y-82909030D01*
X140272429Y-82900765D01*
X140296227Y-82894804D01*
X140320496Y-82891204D01*
X140345000Y-82890000D01*
X141595000Y-82890000D01*
X141619504Y-82891204D01*
G37*
M02*
