G04 #@! TF.GenerationSoftware,KiCad,Pcbnew,5.1.5*
G04 #@! TF.CreationDate,2020-01-04T21:59:29+01:00*
G04 #@! TF.ProjectId,cs_ina199,63735f69-6e61-4313-9939-2e6b69636164,rev?*
G04 #@! TF.SameCoordinates,Original*
G04 #@! TF.FileFunction,Legend,Bot*
G04 #@! TF.FilePolarity,Positive*
%FSLAX46Y46*%
G04 Gerber Fmt 4.6, Leading zero omitted, Abs format (unit mm)*
G04 Created by KiCad (PCBNEW 5.1.5) date 2020-01-04 21:59:29*
%MOMM*%
%LPD*%
G04 APERTURE LIST*
%ADD10C,0.150000*%
G04 APERTURE END LIST*
D10*
X149652857Y-84717380D02*
X149652857Y-83717380D01*
X149176666Y-84717380D02*
X149176666Y-83717380D01*
X148605238Y-84717380D01*
X148605238Y-83717380D01*
X148176666Y-84431666D02*
X147700476Y-84431666D01*
X148271904Y-84717380D02*
X147938571Y-83717380D01*
X147605238Y-84717380D01*
X146748095Y-84717380D02*
X147319523Y-84717380D01*
X147033809Y-84717380D02*
X147033809Y-83717380D01*
X147129047Y-83860238D01*
X147224285Y-83955476D01*
X147319523Y-84003095D01*
X146271904Y-84717380D02*
X146081428Y-84717380D01*
X145986190Y-84669761D01*
X145938571Y-84622142D01*
X145843333Y-84479285D01*
X145795714Y-84288809D01*
X145795714Y-83907857D01*
X145843333Y-83812619D01*
X145890952Y-83765000D01*
X145986190Y-83717380D01*
X146176666Y-83717380D01*
X146271904Y-83765000D01*
X146319523Y-83812619D01*
X146367142Y-83907857D01*
X146367142Y-84145952D01*
X146319523Y-84241190D01*
X146271904Y-84288809D01*
X146176666Y-84336428D01*
X145986190Y-84336428D01*
X145890952Y-84288809D01*
X145843333Y-84241190D01*
X145795714Y-84145952D01*
X145319523Y-84717380D02*
X145129047Y-84717380D01*
X145033809Y-84669761D01*
X144986190Y-84622142D01*
X144890952Y-84479285D01*
X144843333Y-84288809D01*
X144843333Y-83907857D01*
X144890952Y-83812619D01*
X144938571Y-83765000D01*
X145033809Y-83717380D01*
X145224285Y-83717380D01*
X145319523Y-83765000D01*
X145367142Y-83812619D01*
X145414761Y-83907857D01*
X145414761Y-84145952D01*
X145367142Y-84241190D01*
X145319523Y-84288809D01*
X145224285Y-84336428D01*
X145033809Y-84336428D01*
X144938571Y-84288809D01*
X144890952Y-84241190D01*
X144843333Y-84145952D01*
X143081428Y-84622142D02*
X143129047Y-84669761D01*
X143271904Y-84717380D01*
X143367142Y-84717380D01*
X143510000Y-84669761D01*
X143605238Y-84574523D01*
X143652857Y-84479285D01*
X143700476Y-84288809D01*
X143700476Y-84145952D01*
X143652857Y-83955476D01*
X143605238Y-83860238D01*
X143510000Y-83765000D01*
X143367142Y-83717380D01*
X143271904Y-83717380D01*
X143129047Y-83765000D01*
X143081428Y-83812619D01*
X142652857Y-83717380D02*
X142652857Y-84526904D01*
X142605238Y-84622142D01*
X142557619Y-84669761D01*
X142462380Y-84717380D01*
X142271904Y-84717380D01*
X142176666Y-84669761D01*
X142129047Y-84622142D01*
X142081428Y-84526904D01*
X142081428Y-83717380D01*
X141033809Y-84717380D02*
X141367142Y-84241190D01*
X141605238Y-84717380D02*
X141605238Y-83717380D01*
X141224285Y-83717380D01*
X141129047Y-83765000D01*
X141081428Y-83812619D01*
X141033809Y-83907857D01*
X141033809Y-84050714D01*
X141081428Y-84145952D01*
X141129047Y-84193571D01*
X141224285Y-84241190D01*
X141605238Y-84241190D01*
X140033809Y-84717380D02*
X140367142Y-84241190D01*
X140605238Y-84717380D02*
X140605238Y-83717380D01*
X140224285Y-83717380D01*
X140129047Y-83765000D01*
X140081428Y-83812619D01*
X140033809Y-83907857D01*
X140033809Y-84050714D01*
X140081428Y-84145952D01*
X140129047Y-84193571D01*
X140224285Y-84241190D01*
X140605238Y-84241190D01*
X139605238Y-84193571D02*
X139271904Y-84193571D01*
X139129047Y-84717380D02*
X139605238Y-84717380D01*
X139605238Y-83717380D01*
X139129047Y-83717380D01*
X138700476Y-84717380D02*
X138700476Y-83717380D01*
X138129047Y-84717380D01*
X138129047Y-83717380D01*
X137795714Y-83717380D02*
X137224285Y-83717380D01*
X137510000Y-84717380D02*
X137510000Y-83717380D01*
X149890952Y-86319761D02*
X149748095Y-86367380D01*
X149510000Y-86367380D01*
X149414761Y-86319761D01*
X149367142Y-86272142D01*
X149319523Y-86176904D01*
X149319523Y-86081666D01*
X149367142Y-85986428D01*
X149414761Y-85938809D01*
X149510000Y-85891190D01*
X149700476Y-85843571D01*
X149795714Y-85795952D01*
X149843333Y-85748333D01*
X149890952Y-85653095D01*
X149890952Y-85557857D01*
X149843333Y-85462619D01*
X149795714Y-85415000D01*
X149700476Y-85367380D01*
X149462380Y-85367380D01*
X149319523Y-85415000D01*
X148890952Y-85843571D02*
X148557619Y-85843571D01*
X148414761Y-86367380D02*
X148890952Y-86367380D01*
X148890952Y-85367380D01*
X148414761Y-85367380D01*
X147986190Y-86367380D02*
X147986190Y-85367380D01*
X147414761Y-86367380D01*
X147414761Y-85367380D01*
X146986190Y-86319761D02*
X146843333Y-86367380D01*
X146605238Y-86367380D01*
X146510000Y-86319761D01*
X146462380Y-86272142D01*
X146414761Y-86176904D01*
X146414761Y-86081666D01*
X146462380Y-85986428D01*
X146510000Y-85938809D01*
X146605238Y-85891190D01*
X146795714Y-85843571D01*
X146890952Y-85795952D01*
X146938571Y-85748333D01*
X146986190Y-85653095D01*
X146986190Y-85557857D01*
X146938571Y-85462619D01*
X146890952Y-85415000D01*
X146795714Y-85367380D01*
X146557619Y-85367380D01*
X146414761Y-85415000D01*
X145986190Y-85843571D02*
X145652857Y-85843571D01*
X145510000Y-86367380D02*
X145986190Y-86367380D01*
X145986190Y-85367380D01*
X145510000Y-85367380D01*
X143986190Y-85843571D02*
X143843333Y-85891190D01*
X143795714Y-85938809D01*
X143748095Y-86034047D01*
X143748095Y-86176904D01*
X143795714Y-86272142D01*
X143843333Y-86319761D01*
X143938571Y-86367380D01*
X144319523Y-86367380D01*
X144319523Y-85367380D01*
X143986190Y-85367380D01*
X143890952Y-85415000D01*
X143843333Y-85462619D01*
X143795714Y-85557857D01*
X143795714Y-85653095D01*
X143843333Y-85748333D01*
X143890952Y-85795952D01*
X143986190Y-85843571D01*
X144319523Y-85843571D01*
X142748095Y-86367380D02*
X143081428Y-85891190D01*
X143319523Y-86367380D02*
X143319523Y-85367380D01*
X142938571Y-85367380D01*
X142843333Y-85415000D01*
X142795714Y-85462619D01*
X142748095Y-85557857D01*
X142748095Y-85700714D01*
X142795714Y-85795952D01*
X142843333Y-85843571D01*
X142938571Y-85891190D01*
X143319523Y-85891190D01*
X142319523Y-85843571D02*
X141986190Y-85843571D01*
X141843333Y-86367380D02*
X142319523Y-86367380D01*
X142319523Y-85367380D01*
X141843333Y-85367380D01*
X141462380Y-86081666D02*
X140986190Y-86081666D01*
X141557619Y-86367380D02*
X141224285Y-85367380D01*
X140890952Y-86367380D01*
X140557619Y-86367380D02*
X140557619Y-85367380D01*
X139986190Y-86367380D02*
X140414761Y-85795952D01*
X139986190Y-85367380D02*
X140557619Y-85938809D01*
X139367142Y-85367380D02*
X139176666Y-85367380D01*
X139081428Y-85415000D01*
X138986190Y-85510238D01*
X138938571Y-85700714D01*
X138938571Y-86034047D01*
X138986190Y-86224523D01*
X139081428Y-86319761D01*
X139176666Y-86367380D01*
X139367142Y-86367380D01*
X139462380Y-86319761D01*
X139557619Y-86224523D01*
X139605238Y-86034047D01*
X139605238Y-85700714D01*
X139557619Y-85510238D01*
X139462380Y-85415000D01*
X139367142Y-85367380D01*
X138510000Y-85367380D02*
X138510000Y-86176904D01*
X138462380Y-86272142D01*
X138414761Y-86319761D01*
X138319523Y-86367380D01*
X138129047Y-86367380D01*
X138033809Y-86319761D01*
X137986190Y-86272142D01*
X137938571Y-86176904D01*
X137938571Y-85367380D01*
X137605238Y-85367380D02*
X137033809Y-85367380D01*
X137319523Y-86367380D02*
X137319523Y-85367380D01*
M02*
